<svg width="30" height="30" viewBox="0 0 30 30" fill="none" xmlns="http://www.w3.org/2000/svg">
<g clip-path="url(#clip0_757_924)">
<path d="M10.952 5.19727C11.1115 5.08556 11.2213 4.91619 11.2582 4.72496C11.2951 4.53374 11.2562 4.33566 11.1496 4.17263C11.0431 4.0096 10.8773 3.89441 10.6874 3.85141C10.4975 3.80841 10.2982 3.84099 10.1319 3.94224C8.59056 4.94783 7.36643 6.37037 6.60188 8.04439C6.52438 8.22452 6.52052 8.42785 6.59112 8.6108C6.66172 8.79375 6.80117 8.94177 6.97958 9.02315C7.158 9.10453 7.36119 9.1128 7.54563 9.04617C7.73006 8.97955 7.88107 8.84334 7.9663 8.66673C8.61292 7.25085 9.64831 6.0477 10.952 5.19727ZM24.1706 7.70392C24.1266 7.61543 24.0654 7.53653 23.9907 7.47175C23.9161 7.40697 23.8293 7.3576 23.7355 7.32647C23.6417 7.29534 23.5426 7.28306 23.444 7.29035C23.3454 7.29764 23.2493 7.32435 23.161 7.36894C23.0728 7.41353 22.9942 7.47512 22.9299 7.55017C22.8656 7.62523 22.8167 7.71226 22.7861 7.80627C22.7555 7.90028 22.7438 7.9994 22.7517 8.09795C22.7595 8.19649 22.7868 8.29251 22.8319 8.38048C23.5361 9.76882 23.8315 11.3286 23.6838 12.8782C23.6648 13.0763 23.7253 13.2738 23.8519 13.4274C23.9146 13.5034 23.9916 13.5663 24.0786 13.6126C24.1656 13.6588 24.2609 13.6874 24.359 13.6969C24.457 13.7063 24.556 13.6963 24.6502 13.6675C24.7445 13.6386 24.8321 13.5915 24.9081 13.5288C24.9841 13.4662 25.047 13.3891 25.0933 13.3021C25.1395 13.2151 25.1682 13.1198 25.1776 13.0217C25.3519 11.1894 25.0034 9.34542 24.1706 7.70392Z" fill="#F8F8F8"/>
<path fill-rule="evenodd" clip-rule="evenodd" d="M17.2141 5.58173C15.4849 5.11839 13.6424 5.36095 12.0921 6.25606C10.5417 7.15116 9.4104 8.62549 8.94706 10.3547L8.75295 11.0791C8.22814 13.0496 6.98938 14.7546 5.27747 15.8626C5.17462 15.9293 5.08969 16.0202 5.03011 16.1274C4.97053 16.2345 4.93813 16.3546 4.93573 16.4772C4.93333 16.5998 4.96102 16.721 5.01636 16.8304C5.0717 16.9398 5.15301 17.034 5.25318 17.1047C6.59704 18.0548 8.04927 18.8788 9.59785 19.5557C9.42844 20.0425 9.36124 20.5591 9.40044 21.0731C9.43964 21.5872 9.5844 22.0876 9.82569 22.5432C10.067 22.9987 10.3996 23.3996 10.8028 23.7209C11.206 24.0421 11.6711 24.2768 12.169 24.4102C12.667 24.5436 13.1871 24.573 13.6969 24.4963C14.2067 24.4197 14.6952 24.2388 15.1319 23.965C15.5687 23.6911 15.9442 23.3301 16.2352 22.9045C16.5262 22.479 16.7262 21.998 16.823 21.4916C18.4795 21.6768 20.1506 21.6931 21.8104 21.5401C21.9323 21.5289 22.0496 21.488 22.1521 21.4209C22.2546 21.3539 22.3391 21.2628 22.3982 21.1556C22.4574 21.0484 22.4894 20.9284 22.4915 20.8059C22.4935 20.6835 22.4656 20.5624 22.4101 20.4533C21.4819 18.6377 21.262 16.5419 21.7929 14.5732L21.9871 13.8488C22.4504 12.1195 22.2078 10.2771 21.3127 8.72673C20.4176 7.17636 18.9433 6.04507 17.2141 5.58173ZM10.9644 20.2127C10.9732 20.1799 10.9817 20.148 10.9922 20.1166C12.402 20.6339 13.8554 21.0234 15.335 21.2803L15.311 21.3774C15.1566 21.9538 14.7795 22.4452 14.2627 22.7436C13.7459 23.042 13.1317 23.1228 12.5553 22.9684C11.9789 22.8139 11.4875 22.4368 11.1891 21.9201C10.8908 21.4033 10.8099 20.7891 10.9644 20.2127Z" fill="#F8F8F8"/>
</g>
<defs>
<clipPath id="clip0_757_924">
<rect width="24" height="24" fill="white" transform="translate(6.21094 0.302734) rotate(15)"/>
</clipPath>
</defs>
</svg>
