<svg width="41" height="41" viewBox="0 0 41 41" fill="none" xmlns="http://www.w3.org/2000/svg">
<path opacity="0.4" d="M20.4974 37.5827C29.9323 37.5827 37.5807 29.9342 37.5807 20.4993C37.5807 11.0645 29.9323 3.41602 20.4974 3.41602C11.0625 3.41602 3.41406 11.0645 3.41406 20.4993C3.41406 29.9342 11.0625 37.5827 20.4974 37.5827Z" fill="#01B762"/>
<path d="M22.313 20.5002L26.2422 16.5711C26.7376 16.0756 26.7376 15.2557 26.2422 14.7602C25.7468 14.2648 24.9268 14.2648 24.4314 14.7602L20.5022 18.6894L16.573 14.7602C16.0776 14.2648 15.2576 14.2648 14.7622 14.7602C14.2668 15.2557 14.2668 16.0756 14.7622 16.5711L18.6914 20.5002L14.7622 24.4294C14.2668 24.9248 14.2668 25.7448 14.7622 26.2402C15.0184 26.4965 15.343 26.6161 15.6676 26.6161C15.9922 26.6161 16.3168 26.4965 16.573 26.2402L20.5022 22.3111L24.4314 26.2402C24.6876 26.4965 25.0122 26.6161 25.3368 26.6161C25.6614 26.6161 25.9859 26.4965 26.2422 26.2402C26.7376 25.7448 26.7376 24.9248 26.2422 24.4294L22.313 20.5002Z" fill="#01B762"/>
</svg>
