<svg width="34" height="34" viewBox="0 0 34 34" fill="none" xmlns="http://www.w3.org/2000/svg">
<path d="M22.2343 18.1484V23.8671C22.2343 28.6327 20.328 30.5389 15.5624 30.5389H9.84371C5.07811 30.5389 3.17188 28.6327 3.17188 23.8671V18.1484C3.17188 13.3828 5.07811 11.4766 9.84371 11.4766H15.5624C20.328 11.4766 22.2343 13.3828 22.2343 18.1484Z" fill="white"/>
<path opacity="0.4" d="M23.7285 3.30664H18.0098C13.3123 3.30664 11.406 5.17203 11.3516 9.77424H15.5589C21.2776 9.77424 23.9327 12.4294 23.9327 18.1481V22.3554C28.5349 22.3009 30.4003 20.3947 30.4003 15.6972V9.97848C30.4003 5.21288 28.4941 3.30664 23.7285 3.30664Z" fill="white"/>
</svg>
