<svg width="30" height="30" viewBox="0 0 30 30" fill="none" xmlns="http://www.w3.org/2000/svg">
<path d="M15.2312 26.6978C18.365 26.6978 21.3705 25.4529 23.5865 23.2369C25.8025 21.0209 27.0474 18.0154 27.0474 14.8816C27.0474 11.7477 25.8025 8.74223 23.5865 6.52627C21.3705 4.3103 18.365 3.06538 15.2312 3.06538C12.0973 3.06538 9.09184 4.3103 6.87587 6.52627C4.65991 8.74223 3.41499 11.7477 3.41499 14.8816C3.41499 18.0154 4.65991 21.0209 6.87587 23.2369C9.09184 25.4529 12.0973 26.6978 15.2312 26.6978ZM15.2312 29.6518C7.07358 29.6518 0.460938 23.0392 0.460938 14.8816C0.460938 6.72397 7.07358 0.111328 15.2312 0.111328C23.3888 0.111328 30.0014 6.72397 30.0014 14.8816C30.0014 23.0392 23.3888 29.6518 15.2312 29.6518Z" fill="#01B762"/>
<path d="M15.8565 12.7145C14.6761 12.7145 13.7128 13.6778 13.7128 14.8583C13.7128 16.0387 14.6761 17.002 15.8565 17.002C17.0369 17.002 18.0003 16.0387 18.0003 14.8583C18.0003 13.6778 17.0369 12.7145 15.8565 12.7145ZM22.2861 14.8583C22.2861 13.9705 22.2942 13.0908 22.2443 12.2047C22.1944 11.1754 21.9596 10.2619 21.207 9.50929C20.4528 8.75503 19.5409 8.52183 18.5117 8.47198C17.6239 8.42212 16.7443 8.43017 15.8581 8.43017C14.9704 8.43017 14.0907 8.42212 13.2046 8.47198C12.1754 8.52183 11.2619 8.75664 10.5093 9.50929C9.75502 10.2635 9.52183 11.1754 9.47198 12.2047C9.42212 13.0924 9.43017 13.9721 9.43017 14.8583C9.43017 15.7444 9.42212 16.6257 9.47198 17.5118C9.52183 18.5411 9.75663 19.4546 10.5093 20.2072C11.2635 20.9615 12.1754 21.1947 13.2046 21.2445C14.0923 21.2944 14.972 21.2864 15.8581 21.2864C16.7459 21.2864 17.6256 21.2944 18.5117 21.2445C19.5409 21.1947 20.4544 20.9599 21.207 20.2072C21.9613 19.453 22.1944 18.5411 22.2443 17.5118C22.2958 16.6257 22.2861 15.746 22.2861 14.8583ZM15.8565 18.1567C14.0312 18.1567 12.5581 16.6836 12.5581 14.8583C12.5581 13.0329 14.0312 11.5598 15.8565 11.5598C17.6818 11.5598 19.1549 13.0329 19.1549 14.8583C19.1549 16.6836 17.6818 18.1567 15.8565 18.1567ZM19.29 12.195C18.8639 12.195 18.5197 11.8509 18.5197 11.4247C18.5197 10.9985 18.8639 10.6543 19.29 10.6543C19.7162 10.6543 20.0604 10.9985 20.0604 11.4247C20.0605 11.5259 20.0407 11.6261 20.002 11.7196C19.9633 11.8132 19.9066 11.8981 19.835 11.9697C19.7635 12.0412 19.6785 12.098 19.585 12.1367C19.4915 12.1753 19.3912 12.1952 19.29 12.195Z" fill="#01B762"/>
</svg>
