<svg width="34" height="36" viewBox="0 0 34 36" fill="none" xmlns="http://www.w3.org/2000/svg">
<path d="M33.922 2.28514L33.7059 0L31.5446 0.725441C27.8407 2.02134 23.8853 2.41901 20 1.88615C15.9174 1.24814 11.7386 1.81508 7.96915 3.51839C5.97087 4.37522 4.21717 5.72176 2.86769 7.43542C1.51822 9.14908 0.61585 11.1754 0.242737 13.33C-0.241057 16.1133 0.000970871 18.9754 0.945139 21.6363C1.55308 20.2545 2.2635 18.9207 3.07035 17.6463C4.90056 14.9347 7.43655 12.7826 10.4005 11.4257C13.256 10.1129 16.3771 9.49175 19.5138 9.61209C16.5277 10.0718 13.6694 11.1527 11.121 12.7859C9.89171 13.5637 8.76599 14.4961 7.77104 15.5607C6.81949 16.6248 5.9805 17.7857 5.26761 19.0247C3.9286 21.6145 2.97583 24.3889 2.43999 27.2584C1.86243 30.1372 1.54893 33.0634 1.50346 36H5.10552C5.27481 33.3663 5.62991 30.7482 6.16813 28.1652C8.66693 29.524 11.4692 30.217 14.3088 30.1783C16.9571 30.1765 19.5783 29.64 22.0172 28.6005C35.723 22.7063 33.922 3.10126 33.922 2.28514Z" fill="#01B762"/>
</svg>
