<svg width="24" height="24" viewBox="0 0 24 24" fill="none" xmlns="http://www.w3.org/2000/svg">
<g clip-path="url(#clip0_732_1313)">
<path d="M18.905 6.43908L11.25 14.0941C11.477 14.4191 11.67 14.7701 11.825 15.1421L13.735 19.7411L18.905 6.43908ZM9.90295 12.7471L17.559 5.09108L4.25595 10.2611L8.85495 12.1721C9.2241 12.3252 9.57551 12.518 9.90295 12.7471ZM21.521 4.88508L15.494 20.3911C15.114 21.3711 14.017 21.8741 13.045 21.5151C12.8082 21.4276 12.5921 21.2921 12.4102 21.1171C12.2283 20.942 12.0845 20.7313 11.988 20.4981L10.078 15.8991C9.70631 15.0028 8.99419 14.2907 8.09795 13.9191L3.49795 12.0091C2.54395 11.6121 2.10795 10.5091 2.52595 9.54308C2.62845 9.30704 2.77664 9.09363 2.962 8.91513C3.14736 8.73664 3.36622 8.5966 3.60595 8.50308L19.112 2.47408C19.4489 2.3383 19.8183 2.30461 20.1742 2.37719C20.5302 2.44977 20.8569 2.62542 21.1138 2.88228C21.3706 3.13914 21.5463 3.46587 21.6188 3.8218C21.6914 4.17774 21.6577 4.54715 21.522 4.88408L21.521 4.88508Z" fill="#F8F8F8"/>
</g>
<defs>
<clipPath id="clip0_732_1313">
<rect width="24" height="24" fill="white"/>
</clipPath>
</defs>
</svg>
