<svg width="16" height="18" viewBox="0 0 16 18" fill="none" xmlns="http://www.w3.org/2000/svg">
<path d="M13.3333 17.8891C12.5926 17.8891 11.963 17.6298 11.4444 17.1113C10.9259 16.5928 10.6667 15.9632 10.6667 15.2224C10.6667 15.1187 10.6741 15.0112 10.6889 14.8998C10.7037 14.7884 10.7259 14.6885 10.7556 14.6002L4.48889 10.9558C4.23704 11.178 3.95556 11.3522 3.64444 11.4784C3.33333 11.6047 3.00741 11.6675 2.66667 11.6669C1.92593 11.6669 1.2963 11.4076 0.777778 10.8891C0.259259 10.3706 0 9.74096 0 9.00022C0 8.25948 0.259259 7.62985 0.777778 7.11133C1.2963 6.59281 1.92593 6.33355 2.66667 6.33355C3.00741 6.33355 3.33333 6.39666 3.64444 6.52288C3.95556 6.64911 4.23704 6.82303 4.48889 7.04466L10.7556 3.40022C10.7259 3.31133 10.7037 3.21148 10.6889 3.10066C10.6741 2.98985 10.6667 2.88229 10.6667 2.778C10.6667 2.03725 10.9259 1.40762 11.4444 0.889106C11.963 0.370587 12.5926 0.111328 13.3333 0.111328C14.0741 0.111328 14.7037 0.370587 15.2222 0.889106C15.7407 1.40762 16 2.03725 16 2.778C16 3.51874 15.7407 4.14837 15.2222 4.66688C14.7037 5.1854 14.0741 5.44466 13.3333 5.44466C12.9926 5.44466 12.6667 5.38185 12.3556 5.25622C12.0444 5.13059 11.763 4.95637 11.5111 4.73355L5.24444 8.378C5.27407 8.46688 5.2963 8.56703 5.31111 8.67844C5.32593 8.78985 5.33333 8.89711 5.33333 9.00022C5.33333 9.10392 5.32593 9.21148 5.31111 9.32288C5.2963 9.43429 5.27407 9.53414 5.24444 9.62244L11.5111 13.2669C11.763 13.0447 12.0444 12.8707 12.3556 12.7451C12.6667 12.6195 12.9926 12.5564 13.3333 12.5558C14.0741 12.5558 14.7037 12.815 15.2222 13.3336C15.7407 13.8521 16 14.4817 16 15.2224C16 15.9632 15.7407 16.5928 15.2222 17.1113C14.7037 17.6298 14.0741 17.8891 13.3333 17.8891Z" fill="white"/>
</svg>
