<svg width="67" height="67" viewBox="0 0 67 67" fill="none" xmlns="http://www.w3.org/2000/svg">
<circle cx="33.5" cy="33.5" r="33" fill="#1D9BF0" fill-opacity="0.2" stroke="#E7E7E7"/>
<g clip-path="url(#clip0_815_942)">
<path d="M45.2188 10H20.7812C14.8269 10 10 14.8269 10 20.7812V45.2188C10 51.1731 14.8269 56 20.7812 56H45.2188C51.1731 56 56 51.1731 56 45.2188V20.7812C56 14.8269 51.1731 10 45.2188 10Z" fill="white"/>
<path d="M45.2188 10H20.7812C14.8269 10 10 14.8269 10 20.7812V45.2188C10 51.1731 14.8269 56 20.7812 56H45.2188C51.1731 56 56 51.1731 56 45.2188V20.7812C56 14.8269 51.1731 10 45.2188 10Z" fill="#1D9BF0"/>
<path d="M45.8606 26.4254C45.8804 26.7106 45.8804 26.9957 45.8804 27.2836C45.8804 36.0518 39.2053 46.1643 26.9997 46.1643V46.1589C23.3939 46.1641 19.8629 45.1314 16.8281 43.1841C17.3525 43.2472 17.8793 43.2787 18.4076 43.2799C21.3961 43.2823 24.2986 42.2799 26.6488 40.4338C25.2641 40.4077 23.9222 39.9494 22.8107 39.1232C21.6992 38.297 20.8737 37.1441 20.4495 35.8258C21.4437 36.0174 22.4686 35.9783 23.4453 35.7115C20.3496 35.086 18.1224 32.3661 18.1224 29.2071V29.1231C19.0453 29.6371 20.0781 29.9219 21.134 29.9536C18.2184 28.0049 17.3196 24.1259 19.0801 21.0932C20.7461 23.1432 22.8246 24.8199 25.1808 26.0143C27.537 27.2087 30.118 27.894 32.7563 28.0259C32.4933 26.8936 32.5321 25.712 32.869 24.5994C33.2059 23.4868 33.829 22.4822 34.6759 21.686C37.3486 19.1736 41.552 19.3024 44.0644 21.9736C45.5505 21.6803 46.9755 21.1355 48.2783 20.3627C47.7829 21.8992 46.7463 23.2034 45.3612 24.0327C46.6767 23.8777 47.9613 23.5256 49.1719 22.9882C48.2814 24.3218 47.16 25.4857 45.8606 26.4254Z" fill="white"/>
</g>
<defs>
<clipPath id="clip0_815_942">
<rect width="46" height="46" fill="white" transform="translate(10 10)"/>
</clipPath>
</defs>
</svg>
