<svg width="67" height="67" viewBox="0 0 67 67" fill="none" xmlns="http://www.w3.org/2000/svg">
<circle cx="33.5" cy="33.5" r="33" fill="#1D9BF0" fill-opacity="0.2" stroke="#E7E7E7"/>
<g clip-path="url(#clip0_815_953)">
<path d="M56 33C56 20.2975 45.7025 10 33 10C20.2975 10 10 20.2974 10 33C10 44.4799 18.4108 53.9952 29.4062 55.7206V39.6484H23.5664V33H29.4062V27.9328C29.4062 22.1684 32.8401 18.9844 38.0936 18.9844C40.6101 18.9844 43.2422 19.4336 43.2422 19.4336V25.0938H40.342C37.4846 25.0938 36.5938 26.8667 36.5938 28.6857V33H42.9727L41.9529 39.6484H36.5938V55.7206C47.5892 53.9952 56 44.4801 56 33Z" fill="#1877F2"/>
<path d="M41.949 39.6484L42.9688 33H36.5898V28.6857C36.5898 26.8665 37.4809 25.0938 40.3381 25.0938H43.2383V19.4336C43.2383 19.4336 40.6062 18.9844 38.0897 18.9844C32.8362 18.9844 29.4023 22.1684 29.4023 27.9328V33H23.5625V39.6484H29.4023V55.7206C30.5912 55.9069 31.7927 56.0003 32.9961 56C34.1994 56.0004 35.401 55.9069 36.5898 55.7206V39.6484H41.949Z" fill="white"/>
</g>
<defs>
<clipPath id="clip0_815_953">
<rect width="46" height="46" fill="white" transform="translate(10 10)"/>
</clipPath>
</defs>
</svg>
