<svg width="67" height="67" viewBox="0 0 67 67" fill="none" xmlns="http://www.w3.org/2000/svg">
<circle cx="33.5" cy="33.5" r="33" fill="#1D9BF0" fill-opacity="0.2" stroke="#E7E7E7"/>
<g clip-path="url(#clip0_815_977)">
<path d="M45.2188 10H20.7812C14.8269 10 10 14.8269 10 20.7812V45.2188C10 51.1731 14.8269 56 20.7812 56H45.2188C51.1731 56 56 51.1731 56 45.2188V20.7812C56 14.8269 51.1731 10 45.2188 10Z" fill="url(#paint0_radial_815_977)"/>
<path d="M45.2188 10H20.7812C14.8269 10 10 14.8269 10 20.7812V45.2188C10 51.1731 14.8269 56 20.7812 56H45.2188C51.1731 56 56 51.1731 56 45.2188V20.7812C56 14.8269 51.1731 10 45.2188 10Z" fill="url(#paint1_radial_815_977)"/>
<path d="M33.0016 15.0312C28.1217 15.0312 27.5091 15.0526 25.5926 15.1398C23.6796 15.2275 22.3738 15.5302 21.2314 15.9746C20.0494 16.4335 19.0469 17.0475 18.0482 18.0466C17.0486 19.0455 16.4346 20.0479 15.9743 21.2294C15.5286 22.3722 15.2255 23.6785 15.1394 25.5906C15.0537 27.5073 15.0312 28.12 15.0312 33.0002C15.0312 37.8803 15.0528 38.4909 15.1398 40.4074C15.2278 42.3204 15.5306 43.6262 15.9746 44.7686C16.4339 45.9506 17.0479 46.9531 18.0469 47.9518C19.0455 48.9514 20.0479 49.5668 21.229 50.0257C22.3724 50.4701 23.6784 50.7729 25.5909 50.8606C27.5077 50.9477 28.1197 50.9691 32.9995 50.9691C37.88 50.9691 38.4905 50.9477 40.4071 50.8606C42.32 50.7729 43.6273 50.4701 44.7706 50.0257C45.9521 49.5668 46.9531 48.9514 47.9514 47.9518C48.951 46.9531 49.5648 45.9506 50.0254 44.7692C50.4671 43.6262 50.7704 42.32 50.8602 40.4078C50.9463 38.4912 50.9688 37.8803 50.9688 33.0002C50.9688 28.12 50.9463 27.5077 50.8602 25.5909C50.7704 23.678 50.4671 22.3724 50.0254 21.2299C49.5648 20.0479 48.951 19.0455 47.9514 18.0466C46.952 17.0472 45.9524 16.4332 44.7695 15.9748C43.624 15.5302 42.3175 15.2273 40.4046 15.1398C38.4878 15.0526 37.8776 15.0312 32.996 15.0312H33.0016ZM31.3896 18.2694C31.8681 18.2687 32.402 18.2694 33.0016 18.2694C37.7995 18.2694 38.368 18.2866 40.2626 18.3727C42.0146 18.4529 42.9655 18.7456 43.5989 18.9916C44.4375 19.3172 45.0353 19.7065 45.6638 20.3356C46.2927 20.9645 46.6819 21.5634 47.0084 22.402C47.2544 23.0345 47.5475 23.9854 47.6273 25.7374C47.7134 27.6317 47.732 28.2005 47.732 32.996C47.732 37.7915 47.7134 38.3606 47.6273 40.2547C47.5471 42.0067 47.2544 42.9576 47.0084 43.5902C46.6828 44.4288 46.2927 45.0259 45.6638 45.6545C45.0349 46.2834 44.4378 46.6726 43.5989 46.9984C42.9662 47.2454 42.0146 47.5374 40.2626 47.6176C38.3683 47.7037 37.7995 47.7223 33.0016 47.7223C28.2036 47.7223 27.6349 47.7037 25.7408 47.6176C23.9889 47.5367 23.0379 47.244 22.404 46.998C21.5656 46.6722 20.9665 46.283 20.3376 45.6541C19.7087 45.0252 19.3195 44.4278 18.993 43.5888C18.747 42.9561 18.4539 42.0052 18.3742 40.2533C18.2881 38.359 18.2708 37.7901 18.2708 32.9916C18.2708 28.1932 18.2881 27.6272 18.3742 25.7329C18.4543 23.9809 18.747 23.03 18.993 22.3966C19.3188 21.558 19.7087 20.9591 20.3378 20.3302C20.9667 19.7013 21.5656 19.3119 22.4042 18.9856C23.0376 18.7386 23.9889 18.4466 25.7408 18.3661C27.3984 18.2911 28.0408 18.2687 31.3896 18.2649V18.2694ZM42.5933 21.2529C41.4029 21.2529 40.4371 22.2179 40.4371 23.4085C40.4371 24.5989 41.4029 25.5647 42.5933 25.5647C43.7838 25.5647 44.7496 24.5989 44.7496 23.4085C44.7496 22.218 43.7838 21.2522 42.5933 21.2522V21.2529ZM33.0016 23.7723C27.9057 23.7723 23.7739 27.9041 23.7739 33.0002C23.7739 38.0963 27.9057 42.2261 33.0016 42.2261C38.0977 42.2261 42.228 38.0963 42.228 33.0002C42.228 27.9042 38.0974 23.7723 33.0013 23.7723H33.0016ZM33.0016 27.0105C36.3095 27.0105 38.9913 29.692 38.9913 33.0002C38.9913 36.308 36.3095 38.9899 33.0016 38.9899C29.6936 38.9899 27.0121 36.308 27.0121 33.0002C27.0121 29.692 29.6936 27.0105 33.0016 27.0105Z" fill="white"/>
</g>
<defs>
<radialGradient id="paint0_radial_815_977" cx="0" cy="0" r="1" gradientUnits="userSpaceOnUse" gradientTransform="translate(22.2187 59.5429) rotate(-90) scale(45.5894 42.4018)">
<stop stop-color="#FFDD55"/>
<stop offset="0.1" stop-color="#FFDD55"/>
<stop offset="0.5" stop-color="#FF543E"/>
<stop offset="1" stop-color="#C837AB"/>
</radialGradient>
<radialGradient id="paint1_radial_815_977" cx="0" cy="0" r="1" gradientUnits="userSpaceOnUse" gradientTransform="translate(2.29482 13.3136) rotate(78.681) scale(20.3787 84.0017)">
<stop stop-color="#3771C8"/>
<stop offset="0.128" stop-color="#3771C8"/>
<stop offset="1" stop-color="#6600FF" stop-opacity="0"/>
</radialGradient>
<clipPath id="clip0_815_977">
<rect width="46" height="46" fill="white" transform="translate(10 10)"/>
</clipPath>
</defs>
</svg>
