<svg width="67" height="67" viewBox="0 0 67 67" fill="none" xmlns="http://www.w3.org/2000/svg">
<circle cx="33.5" cy="33.5" r="33" fill="#1D9BF0" fill-opacity="0.2" stroke="#E7E7E7"/>
<g clip-path="url(#clip0_815_964)">
<path d="M45.2188 10H20.7812C14.8269 10 10 14.8269 10 20.7812V45.2188C10 51.1731 14.8269 56 20.7812 56H45.2188C51.1731 56 56 51.1731 56 45.2188V20.7812C56 14.8269 51.1731 10 45.2188 10Z" fill="white"/>
<path d="M45.2188 10H20.7812C14.8269 10 10 14.8269 10 20.7812V45.2188C10 51.1731 14.8269 56 20.7812 56H45.2188C51.1731 56 56 51.1731 56 45.2188V20.7812C56 14.8269 51.1731 10 45.2188 10Z" fill="#0A66C2"/>
<path d="M43.191 49.1153H48.4504C48.641 49.1153 48.8238 49.0396 48.9586 48.9048C49.0934 48.7701 49.1691 48.5873 49.1692 48.3967L49.1719 37.2845C49.1719 31.4764 47.9204 27.0121 41.133 27.0121C38.5529 26.9161 36.1197 28.2462 34.8068 30.4671C34.8003 30.4779 34.7906 30.4863 34.7789 30.491C34.7673 30.4957 34.7544 30.4965 34.7423 30.4932C34.7302 30.49 34.7195 30.4828 34.7118 30.4729C34.7042 30.4629 34.6999 30.4507 34.6998 30.4382V28.267C34.6998 28.0764 34.6241 27.8936 34.4893 27.7588C34.3545 27.624 34.1717 27.5483 33.9811 27.5483H28.9899C28.7993 27.5483 28.6165 27.624 28.4817 27.7588C28.3469 27.8936 28.2712 28.0764 28.2712 28.267V48.3956C28.2712 48.5862 28.3469 48.7691 28.4817 48.9039C28.6165 49.0387 28.7993 49.1144 28.9899 49.1144H34.249C34.4396 49.1144 34.6224 49.0387 34.7572 48.9039C34.892 48.7691 34.9678 48.5862 34.9678 48.3956V38.4458C34.9678 35.6324 35.5014 32.9078 38.9893 32.9078C42.4277 32.9078 42.4722 36.1271 42.4722 38.628V48.3965C42.4722 48.5871 42.548 48.77 42.6827 48.9048C42.8175 49.0395 43.0004 49.1153 43.191 49.1153ZM16.8281 20.7142C16.8281 22.8462 18.5831 24.6003 20.7151 24.6003C22.8466 24.6001 24.6005 22.845 24.6005 20.7135C24.6001 18.5821 22.846 16.8281 20.7144 16.8281C18.5822 16.8281 16.8281 18.5824 16.8281 20.7142ZM18.0786 49.1153H23.3447C23.5353 49.1153 23.7181 49.0395 23.8529 48.9048C23.9877 48.77 24.0634 48.5871 24.0634 48.3965V28.267C24.0634 28.0764 23.9877 27.8936 23.8529 27.7588C23.7181 27.624 23.5353 27.5483 23.3447 27.5483H18.0786C17.8879 27.5483 17.7051 27.624 17.5703 27.7588C17.4355 27.8936 17.3598 28.0764 17.3598 28.267V48.3965C17.3598 48.5871 17.4355 48.77 17.5703 48.9048C17.7051 49.0395 17.8879 49.1153 18.0786 49.1153Z" fill="white"/>
</g>
<defs>
<clipPath id="clip0_815_964">
<rect width="46" height="46" fill="white" transform="translate(10 10)"/>
</clipPath>
</defs>
</svg>
