<svg width="244" height="171" viewBox="0 0 244 171" fill="none" xmlns="http://www.w3.org/2000/svg">
<g clip-path="url(#clip0_757_911)">
<g filter="url(#filter0_d_757_911)">
<g clip-path="url(#clip1_757_911)">
<path d="M63.0362 -14.4043C63.0362 -14.4043 23.8731 36.0749 22.5494 37.7926C21.2257 39.5104 19.4139 41.889 17.4896 44.4591L63.0362 150.886V-14.4043Z" fill="#92C13D"/>
<path d="M7.36679 58.8164C2.72964 67.7075 0.779789 73.4521 0.136986 83.465C-0.010841 85.7676 -0.0411235 87.1074 0.0563806 89.373L63.0362 150.886L17.4896 44.4591L7.36679 58.8164Z" fill="#3AA94A"/>
<path d="M4.47487 111.013C7.94699 119.771 11.0825 124.417 17.4896 131.312C23.1112 137.362 26.811 140.529 34.1181 144.361C42.4349 148.723 54.3616 150.886 57.2535 150.886H63.0362L0.0563806 89.373C0.402456 97.4143 1.29665 102.997 4.47487 111.013Z" fill="#088E45"/>
<path d="M90.5095 21.8436L76.0499 2.26973C71.0481 -4.30418 63.0362 -14.4043 63.0362 -14.4043V150.886L107.139 42.4536C101.437 35.6 90.5095 21.8436 90.5095 21.8436Z" fill="#209731"/>
<path d="M116.537 53.0168C113.424 48.4539 111.306 46.0731 107.139 42.4536L63.0362 150.886L125.909 89.373C125.514 78.6018 124.793 65.1209 116.537 53.0168Z" fill="#36A94C"/>
<path d="M63.0362 150.886C69.7841 149.919 80.6445 149.299 90.5095 144.361C103.018 138.1 109.309 131.713 116.537 119.713C122.676 109.52 125.936 90.7145 125.936 90.7145C125.936 90.2906 125.927 89.8426 125.909 89.373L63.0362 150.886Z" fill="#029334"/>
</g>
</g>
<path d="M89.0653 82.5925V88.1875H77.9071V82.5925H80.4185L84.7737 68.4937H81.4516V62.8987H97.2035L102.846 82.5925H105.342V88.1875H91.1158V82.5925H93.1821L92.4986 79.8903H86.7606L86.0453 82.5925H89.0653ZM91.7357 76.0438L89.8919 68.3029L87.5712 76.0438H91.7357ZM120.633 88.1875H106.375V82.5925H109.443V68.4937H106.804V62.8669H119.727C121.825 62.8669 123.616 63.0364 125.099 63.3755C126.551 63.7252 127.706 64.3928 128.564 65.3783C129.423 66.3532 129.852 67.736 129.852 69.5268C129.852 70.7878 129.486 71.8846 128.755 72.8171C128.024 73.7496 127.097 74.4225 125.973 74.8358C127.446 75.4715 128.532 76.2928 129.232 77.2995C129.942 78.3061 130.297 79.689 130.297 81.448C130.297 83.5992 129.454 85.2628 127.769 86.4391C126.095 87.6047 123.716 88.1875 120.633 88.1875ZM117.581 68.4937V73.0873H118.455C119.663 73.0873 120.553 72.9178 121.125 72.5787C121.708 72.2396 122 71.6038 122 70.6713C122 70.0249 121.798 69.5004 121.396 69.0977C120.993 68.695 120.468 68.4937 119.822 68.4937H117.581ZM117.581 77.2518V82.5925H118.153C119.435 82.5925 120.421 82.4123 121.11 82.0521C121.809 81.6918 122.159 80.95 122.159 79.8268C122.159 78.0889 121.099 77.22 118.98 77.22C118.746 77.22 118.513 77.2253 118.28 77.2359C118.047 77.2359 117.814 77.2412 117.581 77.2518ZM145.874 88.6485C143.235 88.6485 140.952 88.0815 139.023 86.9477C137.105 85.8139 135.643 84.2562 134.636 82.2746C133.64 80.293 133.142 78.0306 133.142 75.4874C133.142 72.8489 133.64 70.5494 134.636 68.589C135.632 66.6181 137.084 65.0975 138.991 64.0272C140.909 62.9463 143.203 62.4059 145.874 62.4059C148.534 62.4059 150.822 62.941 152.74 64.0113C154.648 65.0922 156.1 66.6181 157.096 68.589C158.102 70.56 158.606 72.8595 158.606 75.4874C158.606 78.0306 158.108 80.293 157.112 82.2746C156.115 84.2562 154.653 85.8139 152.725 86.9477C150.807 88.0815 148.523 88.6485 145.874 88.6485ZM145.874 83.0058C147.018 83.0058 147.892 82.3117 148.496 80.9235C149.111 79.5354 149.418 77.6809 149.418 75.3603C149.418 73.1032 149.122 71.3177 148.528 70.0037C147.945 68.6897 147.061 68.0327 145.874 68.0327C144.676 68.0327 143.786 68.6897 143.203 70.0037C142.621 71.3177 142.329 73.1032 142.329 75.3603C142.329 77.6809 142.631 79.5354 143.235 80.9235C143.839 82.3117 144.719 83.0058 145.874 83.0058ZM174.278 88.6485C170.506 88.6485 167.788 87.663 166.124 85.692C164.471 83.7104 163.644 80.807 163.644 76.9816V68.4937H161.069V62.8987H174.866V68.4937H172.53V79.1433C172.53 80.1817 172.784 81.0348 173.293 81.7024C173.801 82.3594 174.601 82.6879 175.693 82.6879C176.604 82.6879 177.325 82.4176 177.854 81.8772C178.384 81.3262 178.649 80.5844 178.649 79.6519V68.4937H176.042V62.8987H186.422V68.4937H183.99V79.4294C183.99 81.4533 183.582 83.1541 182.766 84.5317C181.961 85.8986 180.832 86.9265 179.38 87.6153C177.929 88.3041 176.228 88.6485 174.278 88.6485ZM207.276 82.4653V88.1875H193.114V82.4653H195.72V68.4937H193.479L192.796 72.8489H188.329V62.8987H212.124V72.8489H207.673L206.99 68.4937H204.669V82.4653H207.276Z" fill="#088E45"/>
<path d="M126.577 108.958L113.957 148.346H95.3279L83.8836 108.958H78.6065V97.768H106.073V108.958H102.449L108.807 131.942L114.402 108.958H110.237V97.768H132.331V108.958H126.577ZM179.666 126.792V148.346H136.973V137.156H143.108V108.958H136.973V97.768H179.666V117.891H171.528L168.476 108.958H159.385V117.223H167.523V125.552H159.385V137.156H168.476L171.528 126.792H179.666ZM210.28 149.268C205.088 149.268 200.372 148.303 196.134 146.375C191.853 144.467 188.43 141.5 185.865 137.474C183.301 133.447 182.019 128.371 182.019 122.246C182.019 117.372 183.026 113.006 185.039 109.149C187.052 105.292 189.977 102.272 193.813 100.089C197.67 97.8846 202.205 96.7825 207.419 96.7825C209.623 96.7825 211.764 97.1534 213.841 97.8952C215.939 98.6369 217.592 99.7178 218.8 101.138L219.849 97.768H230.848V116.429H221.025C220.368 113.758 219.107 111.734 217.242 110.357C215.377 108.979 213.427 108.29 211.393 108.29C208.002 108.29 205.321 109.53 203.35 112.01C201.379 114.489 200.393 117.902 200.393 122.246C200.393 126.633 201.368 130.077 203.318 132.578C205.268 135.058 208.023 136.297 211.584 136.297C212.431 136.297 213.343 136.213 214.317 136.043C215.038 135.916 215.716 135.746 216.352 135.534C216.988 135.301 217.412 135.164 217.624 135.121V130.639H211.52V121.197H231.897V143.927C228.633 145.665 225.137 146.989 221.407 147.901C217.677 148.812 213.968 149.268 210.28 149.268Z" fill="#088E45"/>
<path d="M84.4508 45.6961V49.0781H77.7059V45.6961H79.224L81.8566 37.1737H79.8485V33.7916H89.3701L92.781 45.6961H94.2895V49.0781H85.6902V45.6961H86.9393L86.5261 44.0627H83.0576L82.6253 45.6961H84.4508ZM86.065 41.7375L84.9504 37.0584L83.5476 41.7375H86.065ZM107.827 42.266V49.0781H95.5482V45.6384H97.0855V37.1737H95.5482V33.7916H103.533V37.1737H102.005V45.6384H104.464L105.387 42.266H107.827ZM121.625 42.266V49.0781H109.345V45.6384H110.883V37.1737H109.345V33.7916H117.33V37.1737H115.802V45.6384H118.262L119.184 42.266H121.625Z" fill="black"/>
</g>
<defs>
<filter id="filter0_d_757_911" x="-1.31183" y="-14.4043" width="78.7107" height="184.968" filterUnits="userSpaceOnUse" color-interpolation-filters="sRGB">
<feFlood flood-opacity="0" result="BackgroundImageFix"/>
<feColorMatrix in="SourceAlpha" type="matrix" values="0 0 0 0 0 0 0 0 0 0 0 0 0 0 0 0 0 0 127 0" result="hardAlpha"/>
<feOffset dx="6.55914" dy="11.8064"/>
<feGaussianBlur stdDeviation="3.93548"/>
<feComposite in2="hardAlpha" operator="out"/>
<feColorMatrix type="matrix" values="0 0 0 0 0 0 0 0 0 0 0 0 0 0 0 0 0 0 0.25 0"/>
<feBlend mode="normal" in2="BackgroundImageFix" result="effect1_dropShadow_757_911"/>
<feBlend mode="normal" in="SourceGraphic" in2="effect1_dropShadow_757_911" result="shape"/>
</filter>
<clipPath id="clip0_757_911">
<rect width="244" height="170.34" fill="white"/>
</clipPath>
<clipPath id="clip1_757_911">
<path d="M0 -14.4043H1.31186C35.3635 -14.4043 62.9678 13.2 62.9678 47.2516V150.886C28.1916 150.886 0 122.694 0 87.9182V-14.4043Z" fill="white"/>
</clipPath>
</defs>
</svg>
