<svg width="49" height="49" viewBox="0 0 49 49" fill="none" xmlns="http://www.w3.org/2000/svg">
<path d="M31.4184 10.6377L34.2971 16.3952C34.685 17.1915 35.7262 17.9469 36.6042 18.1102L41.8104 18.9677C45.1384 19.519 45.9142 21.9282 43.5254 24.3373L39.4625 28.4002C38.7887 29.074 38.4009 30.4011 38.6255 31.3607L39.7892 36.3832C40.7079 40.344 38.5846 41.8957 35.0933 39.8132L30.2137 36.914C29.3358 36.3832 27.8658 36.3832 26.9879 36.914L22.1083 39.8132C18.6171 41.8752 16.4938 40.344 17.4125 36.3832L18.5763 31.3607C18.8009 30.4215 18.4129 29.0944 17.7392 28.4002L13.6763 24.3373C11.2875 21.9486 12.0634 19.5394 15.3913 18.9677L20.5975 18.1102C21.4754 17.9673 22.5167 17.1915 22.9046 16.3952L25.7833 10.6377C27.3146 7.51398 29.8463 7.51398 31.4184 10.6377Z" fill="white"/>
<path opacity="0.4" d="M16.3359 11.7402H4.08594C3.24885 11.7402 2.55469 11.0461 2.55469 10.209C2.55469 9.3719 3.24885 8.67773 4.08594 8.67773H16.3359C17.173 8.67773 17.8672 9.3719 17.8672 10.209C17.8672 11.0461 17.173 11.7402 16.3359 11.7402Z" fill="white"/>
<path opacity="0.4" d="M10.2109 40.3223H4.08594C3.24885 40.3223 2.55469 39.6281 2.55469 38.791C2.55469 37.9539 3.24885 37.2598 4.08594 37.2598H10.2109C11.048 37.2598 11.7422 37.9539 11.7422 38.791C11.7422 39.6281 11.048 40.3223 10.2109 40.3223Z" fill="white"/>
<path opacity="0.4" d="M6.1276 26.0312H4.08594C3.24885 26.0312 2.55469 25.3371 2.55469 24.5C2.55469 23.6629 3.24885 22.9688 4.08594 22.9688H6.1276C6.96469 22.9688 7.65885 23.6629 7.65885 24.5C7.65885 25.3371 6.96469 26.0312 6.1276 26.0312Z" fill="white"/>
</svg>
