<svg width="30" height="30" viewBox="0 0 30 30" fill="none" xmlns="http://www.w3.org/2000/svg">
<path d="M15.0046 26.9771C18.1385 26.9771 21.144 25.7322 23.36 23.5162C25.5759 21.3002 26.8208 18.2947 26.8208 15.1609C26.8208 12.027 25.5759 9.02153 23.36 6.80556C21.144 4.58959 18.1385 3.34468 15.0046 3.34468C11.8708 3.34468 8.86528 4.58959 6.64931 6.80556C4.43334 9.02153 3.18843 12.027 3.18843 15.1609C3.18843 18.2947 4.43334 21.3002 6.64931 23.5162C8.86528 25.7322 11.8708 26.9771 15.0046 26.9771ZM15.0046 29.9311C6.84702 29.9311 0.234375 23.3185 0.234375 15.1609C0.234375 7.00327 6.84702 0.390625 15.0046 0.390625C23.1622 0.390625 29.7749 7.00327 29.7749 15.1609C29.7749 23.3185 23.1622 29.9311 15.0046 29.9311Z" fill="#01B762"/>
<path d="M22.0263 11.5922C21.5093 11.817 20.9543 11.9716 20.3713 12.039C20.967 11.6878 21.4222 11.1314 21.6385 10.4697C21.0709 10.8005 20.4515 11.0332 19.8065 11.1581C19.5351 10.8737 19.2087 10.6475 18.8471 10.4934C18.4855 10.3393 18.0963 10.2605 17.7032 10.2617C16.1114 10.2617 14.8216 11.5332 14.8216 13.0998C14.8216 13.3218 14.8469 13.5381 14.8961 13.7461C13.7543 13.6919 12.6363 13.4002 11.6136 12.8898C10.5908 12.3794 9.68561 11.6614 8.95583 10.7816C8.69951 11.213 8.56456 11.7058 8.56525 12.2076C8.56525 13.1911 9.07525 14.0622 9.84799 14.5694C9.39059 14.555 8.94299 14.4333 8.54136 14.2139V14.2491C8.5457 14.9086 8.77852 15.5463 9.20018 16.0535C9.62184 16.5608 10.2063 16.9061 10.854 17.0309C10.4287 17.1433 9.98384 17.1597 9.55154 17.0787C9.73998 17.6461 10.1004 18.1408 10.5828 18.494C11.0652 18.8472 11.6456 19.0415 12.2435 19.0499C11.2178 19.8402 9.95848 20.2673 8.6636 20.2638C8.43177 20.2638 8.20276 20.2497 7.97656 20.2244C9.2979 21.0608 10.83 21.5037 12.3938 21.5015C17.6962 21.5015 20.5946 17.177 20.5946 13.4257L20.5848 13.0576C21.15 12.6604 21.6384 12.1639 22.0263 11.5922Z" fill="#01B762"/>
</svg>
